<?xml version="1.0" encoding="utf-8" standalone="no"?>
<!DOCTYPE svg PUBLIC "-//W3C//DTD SVG 1.1//EN"
  "http://www.w3.org/Graphics/SVG/1.1/DTD/svg11.dtd">
<svg xmlns:xlink="http://www.w3.org/1999/xlink" width="126pt" height="70.2pt" viewBox="0 0 126 70.2" xmlns="http://www.w3.org/2000/svg" version="1.1">
 <metadata>
  <rdf:RDF xmlns:dc="http://purl.org/dc/elements/1.1/" xmlns:cc="http://creativecommons.org/ns#" xmlns:rdf="http://www.w3.org/1999/02/22-rdf-syntax-ns#">
   <cc:Work>
    <dc:type rdf:resource="http://purl.org/dc/dcmitype/StillImage"/>
    <dc:date>2025-06-16T09:20:09.890589</dc:date>
    <dc:format>image/svg+xml</dc:format>
    <dc:creator>
     <cc:Agent>
      <dc:title>Matplotlib v3.6.3, https://matplotlib.org/</dc:title>
     </cc:Agent>
    </dc:creator>
   </cc:Work>
  </rdf:RDF>
 </metadata>
 <defs>
  <style type="text/css">*{stroke-linejoin: round; stroke-linecap: butt}</style>
 </defs>
 <g id="figure_1">
  <g id="patch_1">
   <path d="M 0 70.2 
L 126 70.2 
L 126 -0 
L 0 -0 
z
" style="fill: #ffffff"/>
  </g>
  <g id="axes_1">
   <g id="line2d_1">
    <path d="M 63 35.1 
L 71.896094 26.341772 
L 76.873211 21.755687 
L 80.516456 18.660971 
L 84.059769 15.940857 
L 86.921591 14.00526 
L 89.688626 12.403671 
L 92.349911 11.161452 
L 94.395697 10.439839 
L 96.361857 9.968242 
L 98.243404 9.751442 
L 100.035566 9.791637 
L 101.733798 10.088419 
L 103.333792 10.63878 
L 104.831491 11.43714 
L 106.223096 12.475404 
L 107.505078 13.743047 
L 108.674185 15.227215 
L 109.727452 16.912863 
L 110.662209 18.7829 
L 111.660415 21.350698 
L 112.465811 24.1362 
L 113.075206 27.0953 
L 113.486183 30.181144 
L 113.697116 33.344873 
L 113.707167 36.536392 
L 113.516298 39.705168 
L 113.125265 42.801026 
L 112.535617 45.774948 
L 111.74969 48.579845 
L 110.770599 51.171305 
L 109.85083 53.063094 
L 108.812236 54.772766 
L 107.657453 56.282986 
L 106.389408 57.578443 
L 105.011319 58.646004 
L 103.526679 59.474845 
L 101.939255 60.056563 
L 100.253073 60.38526 
L 98.472408 60.457605 
L 96.601778 60.272862 
L 94.645926 59.832906 
L 92.609813 59.142196 
L 90.498603 58.207736 
L 87.76216 56.711548 
L 84.9276 54.873167 
L 82.006155 52.721702 
L 78.402053 49.774955 
L 74.087683 45.919589 
L 69.053554 41.110295 
L 50.05079 22.579799 
L 45.783614 18.905477 
L 42.231193 16.151651 
L 39.36051 14.184255 
L 36.583497 12.548034 
L 33.911155 11.268896 
L 31.855776 10.516494 
L 29.879386 10.013331 
L 27.986997 9.764508 
L 26.183408 9.772547 
L 24.473195 10.037367 
L 22.860694 10.556284 
L 21.349995 11.324035 
L 19.944929 12.332838 
L 18.649061 13.572465 
L 17.465676 15.030347 
L 16.397777 16.691704 
L 15.448071 18.539693 
L 14.430788 21.083422 
L 13.605955 23.849086 
L 12.976839 26.792895 
L 12.545933 29.868237 
L 12.314946 33.026417 
L 12.284791 36.21743 
L 12.455589 39.39075 
L 12.826662 42.496131 
L 13.396541 45.484404 
L 14.162967 48.308252 
L 15.122904 50.922963 
L 16.02765 52.836204 
L 17.051529 54.569628 
L 18.191943 56.105659 
L 19.446 57.428726 
L 20.810519 58.525415 
L 22.28204 59.384606 
L 23.856831 59.997589 
L 25.530898 60.358149 
L 27.299994 60.462631 
L 29.159634 60.309975 
L 31.1051 59.901729 
L 33.131458 59.242033 
L 35.23357 58.337573 
L 37.959598 56.877 
L 40.784846 55.071615 
L 43.698118 52.950003 
L 47.293962 50.034271 
L 51.600892 46.207577 
L 56.629482 41.420084 
L 63 35.1 
L 63 35.1 
" clip-path="url(#pe35371b93b)" style="fill: none; stroke: #000000; stroke-width: 2; stroke-linecap: square"/>
   </g>
  </g>
 </g>
 <defs>
  <clipPath id="pe35371b93b">
   <rect x="7.2" y="7.2" width="111.6" height="55.8"/>
  </clipPath>
 </defs>
</svg>
